<svg width="51" height="51" viewBox="0 0 51 51" fill="none" xmlns="http://www.w3.org/2000/svg">
<path d="M50.2031 13.5469C50.2031 11.789 48.7735 10.3594 47.0156 10.3594C46.4323 10.3594 45.8928 10.5283 45.4219 10.8024V7.17188C45.4219 5.41397 43.9923 3.98438 42.2344 3.98438C41.6511 3.98438 41.1116 4.15331 40.6406 4.42744V3.98438C40.6406 2.22647 39.211 0.796875 37.4531 0.796875C35.6952 0.796875 34.2656 2.22647 34.2656 3.98438V4.42744C33.7947 4.15331 33.2552 3.98438 32.6719 3.98438C30.914 3.98438 29.4844 5.41397 29.4844 7.17188V18.4166C29.027 17.9488 28.4875 17.5655 27.8906 17.281V2.39062C27.8906 1.51167 27.1758 0.796875 26.2969 0.796875H2.39062C1.51167 0.796875 0.796875 1.51167 0.796875 2.39062V19.9219C0.796875 20.8008 1.51167 21.5156 2.39062 21.5156H14.6482L16.5463 25.3119C16.8499 25.92 17.4611 26.2969 18.1401 26.2969C19.1226 26.2969 19.9219 25.4976 19.9219 24.5151V21.5156H23.1094V24.5286C23.1094 28.2556 24.123 31.8917 26.0028 35.0625H13.5469V32.6719C14.4258 32.6719 15.1406 31.9571 15.1406 31.0781V27.8906C15.1406 27.0117 14.4258 26.2969 13.5469 26.2969H2.39062C1.51167 26.2969 0.796875 27.0117 0.796875 27.8906V31.0781C0.796875 31.9571 1.51167 32.6719 2.39062 32.6719V43.8281C1.51167 43.8281 0.796875 44.5429 0.796875 45.4219V48.6094C0.796875 49.4883 1.51167 50.2031 2.39062 50.2031H13.5469C14.4258 50.2031 15.1406 49.4883 15.1406 48.6094V45.4219C15.1406 44.5429 14.4258 43.8281 13.5469 43.8281V41.4375H27.8906V50.2031H47.0156V37.6778C49.0971 34.4672 50.2031 30.7578 50.2031 26.9264V13.5469ZM18.3281 19.9219V24.5151C18.3281 24.6912 18.05 24.7573 17.9719 24.5987L15.6331 19.9219H2.39062V2.39062H26.2969V16.7981C26.0355 16.7607 25.7709 16.7344 25.5 16.7344C24.182 16.7344 23.1094 17.807 23.1094 19.125V19.9219H18.3281ZM2.39062 27.8906H13.5469L13.5477 31.0781H2.39062V27.8906ZM13.5477 48.6094H2.39062V45.4219H13.5469L13.5477 48.6094ZM3.98438 43.8281V32.6719H11.9531V43.8281H3.98438ZM13.5469 39.8438V36.6562H27.0531C27.3185 37.022 27.5998 37.3766 27.8906 37.7257V39.8438H13.5469ZM29.4844 48.6094V38.2492L45.4219 38.25V48.6094H29.4844ZM48.6094 26.9256C48.6094 30.3864 47.6348 33.7413 45.7868 36.6562L29.0588 36.6555C26.2475 33.2464 24.7031 28.9545 24.7031 24.5286V19.125C24.7031 18.6851 25.0609 18.3281 25.5 18.3281C27.697 18.3281 29.4844 20.1155 29.4844 22.3125V27.0938H31.0781V7.17188C31.0781 6.29292 31.7929 5.57812 32.6719 5.57812C33.5508 5.57812 34.2656 6.29292 34.2656 7.17188V22.5548H35.8594V3.98438C35.8594 3.10542 36.5742 2.39062 37.4531 2.39062C38.3321 2.39062 39.0469 3.10542 39.0469 3.98438V22.3125H40.6406V7.17188C40.6406 6.29292 41.3554 5.57812 42.2344 5.57812C43.1133 5.57812 43.8281 6.29292 43.8281 7.17188V22.3125H45.4219V13.5469C45.4219 12.6679 46.1367 11.9531 47.0156 11.9531C47.8946 11.9531 48.6094 12.6679 48.6094 13.5469V26.9256Z" fill="#0D0D0D"/>
<path d="M16.7344 13.5469C16.7344 14.4258 17.4492 15.1406 18.3281 15.1406H23.1094C23.9883 15.1406 24.7031 14.4258 24.7031 13.5469V10.9148L21.1451 5.57812H15.1406V3.98438H13.5469V5.57812H7.54242L3.98438 10.9148V13.5469C3.98438 14.4258 4.69917 15.1406 5.57812 15.1406H10.3594C11.2383 15.1406 11.9531 14.4258 11.9531 13.5469V10.9148L9.45811 7.17188H13.5469V16.7344H10.3594V18.3281H18.3281V16.7344H15.1406V7.17188H19.2294L16.7344 10.9148V13.5469ZM5.57812 13.5469V11.9531H10.3594V13.5469H5.57812ZM9.66769 10.3594H6.26981L7.96875 7.81177L9.66769 10.3594ZM18.3281 13.5469V11.9531H23.1094V13.5469H18.3281ZM20.7188 7.81177L22.4177 10.3594H19.0206L20.7188 7.81177Z" fill="#EB9309"/>
</svg>
