<svg width="51" height="52" viewBox="0 0 51 52" fill="none" xmlns="http://www.w3.org/2000/svg">
<g clip-path="url(#clip0_1008_53)">
<path d="M43.3282 29.7343C43.324 28.152 42.922 26.597 42.1555 25.1854L43.916 23.5525C45.2358 22.3283 45.2358 20.3363 43.916 19.1121C43.2577 18.5015 42.3935 18.1956 41.5287 18.1941C41.5275 17.357 41.1756 16.5703 40.5374 15.9783C39.8787 15.3674 39.0138 15.0614 38.1485 15.0603C38.1473 14.2577 37.8174 13.4555 37.1587 12.8445C36.5209 12.253 35.6732 11.9266 34.7714 11.9251C34.7698 11.0887 34.4179 10.3024 33.7802 9.71078C33.1408 9.11773 32.2906 8.79114 31.3865 8.79114C30.4824 8.79114 29.6322 9.11773 28.9929 9.71078L25.5011 12.9496L23.5581 11.1473C22.9188 10.5543 22.0687 10.2277 21.1645 10.2277C20.2602 10.2277 19.4102 10.5543 18.7709 11.1473C18.1326 11.7394 17.7808 12.5261 17.7795 13.3631C16.9148 13.3646 16.0505 13.6705 15.3922 14.2811C14.7543 14.8728 14.4025 15.6589 14.4008 16.4954C13.4991 16.497 12.6514 16.8233 12.0135 17.415C10.9236 18.4259 10.7348 19.96 11.4449 21.1534C10.9558 21.3017 10.4959 21.5549 10.1078 21.9149C8.78805 23.1391 8.78805 25.1311 10.1078 26.3553L11.5178 27.6631L0.316139 38.053C-0.0728277 38.4138 -0.0728277 38.9988 0.316139 39.3597C0.510673 39.54 0.765568 39.6303 1.02046 39.6303C1.27536 39.6303 1.53035 39.54 1.72479 39.3597L9.31826 32.3165L16.4315 38.9143L5.03803 49.4822C4.64906 49.8429 4.64906 50.4279 5.03803 50.7888C5.23256 50.9692 5.48746 51.0594 5.74235 51.0594C5.99725 51.0594 6.25224 50.9692 6.44668 50.7888L21.8464 36.505C22.1301 36.2419 22.453 36.0287 22.8024 35.8683L25.2125 37.3407C26.8065 38.3145 28.75 38.6949 30.6237 38.4135L44.0166 50.8359C44.2111 51.0163 44.466 51.1065 44.7209 51.1065C44.9758 51.1065 45.2308 51.0163 45.4253 50.8359C45.8142 50.4752 45.8142 49.8901 45.4253 49.5293L37.6545 42.3216L38.5939 41.4503C38.9829 41.0895 38.9829 40.5045 38.5939 40.1436C38.2049 39.7829 37.5742 39.7829 37.1851 40.1436L36.2457 41.0149L34.0463 38.9749L42.2597 31.3565L44.4593 33.3967L43.522 34.2661C43.133 34.6269 43.133 35.2119 43.522 35.5727C43.7165 35.7531 43.9714 35.8433 44.2263 35.8433C44.4812 35.8433 44.7362 35.7531 44.9306 35.5727L45.8679 34.7033L49.2989 37.8857C49.4934 38.066 49.7483 38.1563 50.0032 38.1563C50.2581 38.1563 50.5131 38.066 50.7075 37.8857C51.0965 37.5249 51.0965 36.9399 50.7075 36.579L43.3282 29.7343ZM30.4016 11.0174C30.6646 10.7734 31.0145 10.6389 31.3865 10.6389C31.7585 10.6389 32.1083 10.7734 32.3714 11.0174C32.6346 11.2614 32.7794 11.5858 32.7794 11.9309C32.7794 12.2761 32.6345 12.6005 32.3714 12.8445L30.1825 14.8748C29.7936 15.2356 29.7936 15.8206 30.1825 16.1815C30.5715 16.5423 31.2022 16.5422 31.5913 16.1815L33.7802 14.1512C34.0432 13.9071 34.393 13.7728 34.7652 13.7728C35.1372 13.7728 35.487 13.9072 35.7501 14.1512C36.2933 14.655 36.2933 15.4746 35.7501 15.9784L32.4077 19.0786C32.0187 19.4394 32.0187 20.0244 32.4077 20.3853C32.6022 20.5657 32.8571 20.6559 33.112 20.6559C33.3669 20.6559 33.6219 20.5657 33.8163 20.3853L37.1587 17.2851C37.4218 17.041 37.7716 16.9066 38.1437 16.9066C38.5158 16.9066 38.8656 17.0411 39.1287 17.2851C39.3917 17.5291 39.5367 17.8535 39.5367 18.1986C39.5367 18.5437 39.3917 18.8682 39.1287 19.1122L35.7863 22.2124C35.3973 22.5732 35.3973 23.1582 35.7863 23.519C35.9808 23.6995 36.2357 23.7896 36.4906 23.7896C36.7455 23.7896 37.0005 23.6995 37.1949 23.519L40.5372 20.4188C41.0803 19.915 41.9641 19.9151 42.5072 20.4188C43.0503 20.9226 43.0503 21.7423 42.5072 22.246L34.274 29.8826C31.638 32.3276 28.1332 33.6742 24.4051 33.6742C23.3956 33.6742 22.4272 33.9208 21.5783 34.3816L15.813 29.034C16.2566 28.8786 16.6638 28.6368 17.0092 28.3164C17.6475 27.7243 17.9993 26.9376 18.0006 26.1006C18.8653 26.0991 19.7296 25.7931 20.3879 25.1825C21.0462 24.5719 21.376 23.7703 21.3776 22.9682C22.2801 22.9671 23.1283 22.6407 23.7665 22.0487C24.4248 21.4381 24.7546 20.6365 24.7562 19.8344C25.6587 19.8333 26.5068 19.5068 27.145 18.9149C27.7844 18.3219 28.1365 17.5334 28.1365 16.6947C28.1365 15.856 27.7844 15.0675 27.145 14.4745L26.9094 14.256L30.4016 11.0174ZM20.1796 12.4539C20.4426 12.2099 20.7924 12.0755 21.1645 12.0755C21.5365 12.0755 21.8863 12.2099 22.1494 12.4539L25.7367 15.7811C25.9997 16.0251 26.1446 16.3496 26.1446 16.6947C26.1446 17.0398 25.9997 17.3642 25.7367 17.6083C25.4736 17.8523 25.1238 17.9868 24.7517 17.9868C24.3798 17.9868 24.0302 17.8524 23.7671 17.6086C23.767 17.6085 23.7669 17.6084 23.7668 17.6082L20.1796 14.281C19.9165 14.037 19.7716 13.7125 19.7716 13.3675C19.7716 13.0224 19.9164 12.698 20.1796 12.4539V12.4539ZM16.8009 15.5877C17.0725 15.3357 17.4291 15.2099 17.7859 15.2099C18.1426 15.2099 18.4994 15.3358 18.7708 15.5877L22.358 18.9149C22.9011 19.4187 22.901 20.2384 22.358 20.7422C22.0949 20.9862 21.7451 21.1206 21.3731 21.1206C21.0011 21.1206 20.6515 20.9863 20.3884 20.7425C20.3883 20.7424 20.3882 20.7423 20.3881 20.7421L16.801 17.4149C16.5378 17.1709 16.393 16.8464 16.393 16.5012C16.3929 16.1562 16.5378 15.8318 16.8009 15.5877V15.5877ZM13.4223 18.7215C13.6853 18.4774 14.0352 18.3431 14.4072 18.3431C14.7793 18.3431 15.1292 18.4775 15.3922 18.7215L18.9794 22.0488C19.5225 22.5526 19.5225 23.3722 18.9794 23.8759C18.4362 24.3796 17.5525 24.3797 17.0094 23.8759L13.4222 20.5487C12.8791 20.045 12.8791 19.2252 13.4223 18.7215V18.7215ZM11.5165 23.2215C11.7881 22.9695 12.1448 22.8437 12.5015 22.8437C12.8577 22.8437 13.2141 22.9694 13.4854 23.2206L15.6007 25.1826C15.8638 25.4266 16.0087 25.7511 16.0087 26.0962C16.0087 26.4412 15.8638 26.7657 15.6007 27.0098C15.3376 27.2539 14.9878 27.3882 14.6157 27.3882C14.2439 27.3882 13.8943 27.254 13.6313 27.0103L13.6308 27.0098L11.5165 25.0487C10.9734 24.5448 10.9734 23.7252 11.5165 23.2215V23.2215ZM10.727 31.0098L12.9265 28.9697L20.0399 35.5675L17.8404 37.6076L10.727 31.0098ZM31.6557 36.7574C31.4104 36.53 31.0552 36.4368 30.7181 36.5126C29.2106 36.8492 27.6033 36.5886 26.3084 35.7975L25.7689 35.4679C29.5147 35.1755 32.9944 33.6829 35.6829 31.1891L40.6539 26.5784C41.0815 27.537 41.3122 28.5615 41.3334 29.6029L32.6379 37.6684L31.6557 36.7574Z" fill="#0D0D0D"/>
<path d="M40.3524 37.2061C40.1671 37.378 40.0605 37.6154 40.0605 37.8593C40.0605 38.1023 40.1671 38.3407 40.3524 38.5125C40.5377 38.6843 40.7947 38.7833 41.0566 38.7833C41.3196 38.7833 41.5756 38.6844 41.7609 38.5125C41.9462 38.3407 42.0527 38.1023 42.0527 37.8593C42.0527 37.6153 41.9462 37.378 41.7609 37.2061C41.5756 37.0343 41.3186 36.9354 41.0566 36.9354C40.7947 36.9354 40.5377 37.0343 40.3524 37.2061Z" fill="black"/>
<path d="M5.77736 9.72824C5.97189 9.90868 6.22679 9.99885 6.48168 9.99885C6.73658 9.99885 6.99157 9.90868 7.18601 9.72824C7.57497 9.36746 7.57497 8.78245 7.18601 8.42158L2.49739 4.07271C2.10842 3.71193 1.4777 3.71193 1.08864 4.07271C0.699571 4.43349 0.699671 5.0185 1.08864 5.37937L5.77736 9.72824Z" fill="#EB9309"/>
<path d="M19.324 8.83883C19.8741 8.83883 20.32 8.4252 20.32 7.91493V4.72602C20.32 4.21575 19.8741 3.80212 19.324 3.80212C18.7738 3.80212 18.3279 4.21575 18.3279 4.72602V7.91493C18.3279 8.4252 18.7738 8.83883 19.324 8.83883Z" fill="#EB9309"/>
<path d="M2.58958 14.5195H6.02763C6.57776 14.5195 7.0237 14.1059 7.0237 13.5956C7.0237 13.0854 6.57776 12.6718 6.02763 12.6718H2.58958C2.03945 12.6718 1.59351 13.0854 1.59351 13.5956C1.59351 14.1059 2.03945 14.5195 2.58958 14.5195V14.5195Z" fill="#EB9309"/>
<path d="M43.6362 10.166C43.8427 10.1516 44.0431 10.06 44.1881 9.8946L47.6853 5.90773C47.9754 5.57698 47.9349 5.07627 47.5948 4.78934C47.2546 4.50242 46.7436 4.5381 46.4534 4.86886L42.9562 8.85573C42.6661 9.18648 42.7066 9.6872 43.0467 9.97412C43.2169 10.1176 43.4297 10.1804 43.6362 10.166Z" fill="#EB9309"/>
<path d="M45.5696 15.0737C45.5696 15.5839 46.0155 15.9976 46.5657 15.9976H50.0037C50.5538 15.9976 50.9998 15.5839 50.9998 15.0737C50.9998 14.5634 50.5538 14.1498 50.0037 14.1498H46.5657C46.0155 14.1498 45.5696 14.5634 45.5696 15.0737V15.0737Z" fill="#EB9309"/>
<path d="M31.2773 6.62142C31.8275 6.62142 32.2734 6.20779 32.2734 5.69753V2.50861C32.2734 1.99834 31.8275 1.58472 31.2773 1.58472C30.7272 1.58472 30.2812 1.99834 30.2812 2.50861V5.69753C30.2812 6.20779 30.7272 6.62142 31.2773 6.62142Z" fill="#EB9309"/>
<line x1="47.6001" y1="48.4141" x2="1163.93" y2="48.4141" stroke="black"/>
</g>
<defs>
<clipPath id="clip0_1008_53">
<rect width="51" height="51" fill="white" transform="translate(0 0.106445)"/>
</clipPath>
</defs>
</svg>
