<svg width="11" height="10" viewBox="0 0 11 10" fill="none" xmlns="http://www.w3.org/2000/svg">
<path d="M8.07812 0C7.48122 0 6.93397 0.194779 6.45161 0.578938C5.98916 0.947234 5.68126 1.41633 5.5 1.75743C5.31874 1.41631 5.01084 0.947234 4.54839 0.578938C4.06603 0.194779 3.51878 0 2.92188 0C1.25615 0 0 1.40303 0 3.26358C0 5.27363 1.56713 6.64887 3.93957 8.7308C4.34244 9.08436 4.79909 9.48511 5.27373 9.91252C5.33629 9.96894 5.41664 10 5.5 10C5.58336 10 5.66371 9.96894 5.72627 9.91254C6.20095 9.48507 6.65758 9.08434 7.06069 8.73058C9.43287 6.64887 11 5.27363 11 3.26358C11 1.40303 9.74385 0 8.07812 0Z" fill="#0D0D0D"/>
</svg>
