<svg width="35" height="30" viewBox="0 0 35 30" fill="none" xmlns="http://www.w3.org/2000/svg">
<path d="M25.7031 0C23.8039 0 22.0626 0.584336 20.5278 1.73681C19.0564 2.8417 18.0767 4.24898 17.5 5.2723C16.9233 4.24892 15.9436 2.8417 14.4722 1.73681C12.9374 0.584336 11.1961 0 9.29688 0C3.99684 0 0 4.20909 0 9.79075C0 15.8209 4.98634 19.9466 12.535 26.1924C13.8169 27.2531 15.2698 28.4553 16.78 29.7376C16.9791 29.9068 17.2348 30 17.5 30C17.7652 30 18.0209 29.9068 18.22 29.7376C19.7303 28.4552 21.1832 27.253 22.4658 26.1917C30.0137 19.9466 35 15.8209 35 9.79075C35 4.20909 31.0032 0 25.7031 0Z" fill="#7FB432"/>
</svg>
