<svg width="50" height="48" viewBox="0 0 50 48" fill="none" xmlns="http://www.w3.org/2000/svg">
<g clip-path="url(#clip0_909_1705)">
<path d="M37.0073 20.426C36.6255 20.0595 36.0073 20.0595 35.6255 20.426C35.2446 20.7917 35.2446 21.3851 35.6255 21.7517C36.0073 22.1182 36.6255 22.1182 37.0073 21.7517C37.3883 21.3851 37.3883 20.7917 37.0073 20.426Z" fill="#EB9309"/>
<path d="M49.1366 6.13101L43.612 0.827513C42.4671 -0.271418 40.6143 -0.271793 39.4691 0.827513L37.6977 2.52813C36.9713 3.22544 36.6933 4.20727 36.9124 5.14027L28.9035 6.49692C27.1174 6.80039 25.4968 7.61085 24.2175 8.84009L22.5054 10.4828C21.3779 11.5652 20.9184 13.0497 21.1264 14.46C19.6464 14.2594 18.1129 14.7005 16.9821 15.786C15.8529 16.8694 15.3912 18.3403 15.6001 19.7641C14.1207 19.5643 12.5876 20.0048 11.4576 21.0896C10.3605 22.1428 9.86083 23.601 10.0766 25.0692C8.60742 24.8693 7.06094 25.3104 5.93322 26.3929L1.99857 30.1692C-0.666158 32.7276 -0.666256 36.8912 1.99867 39.4507L8.9041 46.0798C11.5698 48.6377 15.9066 48.6383 18.5722 46.0796L22.5057 42.3025C23.6334 41.2198 24.0929 39.7349 23.8845 38.3244C25.407 38.5305 26.9287 38.0564 28.03 36.9992C29.1573 35.9169 29.6167 34.4324 29.4086 33.0218C30.923 33.2271 32.447 32.7599 33.5544 31.6957C34.6819 30.6134 35.1412 29.1291 34.9332 27.7189C36.462 27.9261 37.9815 27.4467 39.0791 26.393L40.7896 24.7501C42.0706 23.5214 42.9147 21.9656 43.2308 20.2504L44.6439 12.5625C45.6139 12.7724 46.6371 12.5075 47.365 11.8087L49.1365 10.1081C50.2815 9.00893 50.2817 7.23023 49.1366 6.13101ZM21.1245 40.9767L17.1911 44.7537C15.2876 46.5812 12.1893 46.5811 10.285 44.7537L3.37991 38.125C1.47631 36.2967 1.47631 33.3225 3.37972 31.4951L7.31436 27.7188C8.45664 26.6221 10.3153 26.6221 11.4577 27.7188L21.1246 36.999C22.267 38.0956 22.267 39.88 21.1245 40.9767ZM26.6488 35.6733C25.507 36.7694 23.6522 36.774 22.5056 35.6733L12.8386 26.393C11.694 25.2941 11.6937 23.5146 12.8387 22.4154C13.9826 21.3172 15.8349 21.3168 16.9812 22.4147L16.982 22.4155L26.6485 31.6953C27.7906 32.7924 27.7909 34.5769 26.6488 35.6733ZM32.173 30.3702C31.0294 31.4694 29.1743 31.4696 28.0301 30.3698L18.3628 21.0894C17.2175 19.9907 17.2169 18.2115 18.3631 17.112C19.5085 16.0124 21.3599 16.0122 22.5055 17.112L32.1734 26.3932C33.3156 27.4895 33.3156 29.2734 32.173 30.3702ZM41.3075 19.9243C41.0616 21.2582 40.4052 22.4684 39.4085 23.4242L37.6978 25.0674C36.5555 26.1641 34.6968 26.1641 33.5544 25.0674L23.8865 15.7862C22.7442 14.6895 22.7443 12.9053 23.8863 11.8088L25.5987 10.1658C26.5938 9.20956 27.8545 8.57937 29.2434 8.34331L38.0572 6.85035L42.8626 11.4636L41.3075 19.9243ZM47.7554 8.78225L45.984 10.4829C45.6023 10.8491 44.985 10.8492 44.6033 10.4829L39.0789 5.17936C38.6974 4.8129 38.6973 4.2204 39.079 3.85393L40.8505 2.15332C41.2322 1.78694 41.8495 1.78704 42.2311 2.15332L47.7554 7.45682C48.1364 7.82263 48.1378 8.41503 47.7554 8.78225Z" fill="#0D0D0D"/>
<path d="M49.3564 35.5106L45.0049 27.3264C44.838 27.0126 44.502 26.8151 44.135 26.8151C43.768 26.8151 43.4321 27.0126 43.2652 27.3264L38.914 35.5102C36.9362 39.2247 39.7545 43.69 44.135 43.69C48.5148 43.69 51.334 39.2254 49.3564 35.5106ZM44.135 41.815C41.2118 41.815 39.3374 38.8347 40.6534 36.3631L44.135 29.8147L47.6169 36.3634C48.9313 38.8323 47.0611 41.815 44.135 41.815Z" fill="#EB9309"/>
<path d="M34.2448 17.7738L29.5299 13.2476C29.1485 12.8815 28.5303 12.8815 28.1488 13.2476C27.7675 13.6137 27.7675 14.2073 28.1488 14.5734L32.8636 19.0996C33.2451 19.4657 33.8632 19.4657 34.2448 19.0996C34.6261 18.7334 34.6261 18.1399 34.2448 17.7738Z" fill="#EB9309"/>
</g>
<defs>
<clipPath id="clip0_909_1705">
<rect width="50" height="48" fill="white"/>
</clipPath>
</defs>
</svg>
