<svg width="51" height="51" viewBox="0 0 51 51" fill="none" xmlns="http://www.w3.org/2000/svg">
<g clip-path="url(#clip0_1008_70)">
<path d="M49.6112 8.10934L43.0764 0.493204C43.0639 0.478761 43.0511 0.464815 43.0376 0.451468C42.467 -0.119194 41.5416 -0.152962 40.931 0.37437L35.7236 4.87064C35.0842 5.42257 35.0135 6.38689 35.5657 7.02648L35.7696 7.26266L35.4337 7.55272C34.5423 8.3226 33.2008 8.5529 31.8455 8.16851C31.818 8.16074 27.9613 7.06623 27.9335 7.05975C27.2306 6.89639 25.4118 6.63841 23.675 7.75901C23.647 7.77505 13.6952 13.4709 13.6682 13.4885C10.9576 15.2542 12.2628 18.2958 14.3304 18.6268C14.4204 21.036 17.4605 22.1458 19.071 20.2852C23.0575 15.6793 22.9262 15.8796 23.135 15.4582L23.2872 15.3955C23.486 16.141 24.0296 16.8832 25.1403 17.1981C29.7991 18.5194 30.7347 18.8905 32.0272 18.7476C35.6394 18.3605 36.4673 18.242 38.2866 17.1949C39.5951 16.4418 40.8687 15.5613 42.0817 14.5733L42.3035 14.8302C42.8564 15.4704 43.8213 15.5392 44.4594 14.9881L49.4164 10.7079C50.1845 10.0449 50.2718 8.87922 49.6112 8.10934ZM17.9413 19.307C17.1941 20.1703 15.7838 19.598 15.8249 18.4782C15.8248 18.4782 20.2389 16.6521 20.2393 16.652L17.9413 19.307ZM37.5414 15.8996C35.9935 16.7905 35.4725 16.8752 31.8837 17.26C30.8992 17.3654 30.1198 17.0569 25.5482 15.7603C24.9612 15.5939 24.8079 15.28 24.7438 15.0585C24.656 14.7558 24.712 14.4665 24.7118 14.4665C24.7493 14.3034 24.8179 14.1639 24.8939 14.0614C25.0052 13.9112 25.1729 13.7649 25.5739 13.8202C26.9877 14.0148 30.3543 14.4649 30.388 14.4695C30.7983 14.5242 31.1731 14.2369 31.2276 13.8279C31.2823 13.4189 30.9951 13.043 30.5862 12.9883C30.5523 12.9838 27.1886 12.5341 25.7776 12.3399C24.4572 12.158 23.6785 12.9737 23.3717 13.7442L22.2819 14.1936C22.2819 14.1936 15.6434 16.9633 14.9814 17.1544C13.7799 17.3231 12.957 15.7592 14.4676 14.7515L24.4341 9.04636C24.4348 9.04606 24.4355 9.04567 24.4362 9.04527C24.4482 9.03829 24.4602 9.03102 24.4718 9.02345C25.7196 8.21104 27.0481 8.39073 27.5785 8.51156L31.4378 9.60627C33.2782 10.128 35.1372 9.78317 36.4103 8.68388L36.7462 8.39382C37.3161 9.05383 40.599 12.8558 41.1053 13.4422C39.9646 14.3685 38.7685 15.1933 37.5414 15.8996ZM48.44 9.57678C48.3999 9.61145 43.4694 13.8936 43.4349 13.8534C43.4004 13.8135 36.6603 6.03627 36.7002 6.0018L41.9076 1.50543H41.9077C41.9177 1.49677 41.9303 1.49249 41.9428 1.49249C41.953 1.49249 41.963 1.49527 41.9718 1.50085L48.4771 9.08252C48.6028 9.22885 48.5863 9.45068 48.44 9.57678Z" fill="#0D0D0D"/>
<path d="M26.0751 24.9373V23.3336C26.6857 23.3792 26.8952 23.6707 27.1503 23.6707C27.4875 23.6707 27.6333 23.2516 27.6333 23.042C27.6333 22.5135 26.6675 22.3404 26.0751 22.3221V22.0852C26.0751 21.9668 25.9202 21.8574 25.7654 21.8574C25.5923 21.8574 25.4558 21.9668 25.4558 22.0852V22.3403C24.5446 22.4588 23.6881 22.9599 23.6881 24.117C23.6881 25.2833 24.6265 25.6386 25.4558 25.9484V27.7616C24.6539 27.6704 24.3806 27.0782 24.0343 27.0782C23.7518 27.0782 23.5239 27.4609 23.5239 27.716C23.5239 28.2263 24.3532 28.8184 25.4558 28.8458V29.1009C25.4558 29.2197 25.5923 29.3289 25.7654 29.3289C25.9203 29.3289 26.0751 29.2197 26.0751 29.1011V28.8187C27.0956 28.6548 27.7973 28.0078 27.7973 26.887C27.7974 25.648 26.8863 25.2379 26.0751 24.9373ZM25.5285 24.7368C25.1093 24.5728 24.7996 24.3997 24.7996 23.9987C24.7996 23.6526 25.073 23.4338 25.5285 23.3609V24.7368ZM26.0024 27.7528V26.1673C26.3942 26.3405 26.6857 26.5592 26.6857 27.0056C26.6857 27.4339 26.4032 27.6707 26.0024 27.7528Z" fill="#EB9309"/>
<path d="M36.8141 32.4081C36.724 29.9988 33.6837 28.8892 32.0736 30.7497L28.3848 35.0116C28.2353 35.1844 28.1101 35.3737 28.0095 35.5768L27.8573 35.6396C27.6585 34.894 27.1149 34.1518 26.0042 33.8369C21.1045 32.4472 20.4661 32.1689 19.1317 32.286C19.1269 32.2864 19.1222 32.2869 19.1174 32.2874C15.5051 32.6747 14.6772 32.7931 12.8579 33.8401C11.5493 34.5934 10.2756 35.4738 9.06281 36.4619L8.84097 36.205C8.28984 35.567 7.32283 35.4961 6.68503 36.0471L1.45803 40.5601C1.15721 40.8197 0.976417 41.1811 0.948925 41.5775C0.921532 41.974 1.05063 42.3568 1.3128 42.6557L8.20158 50.5061C8.71726 51.0937 9.61434 51.1673 10.1998 50.6721C10.2022 50.67 10.2112 50.6625 10.2137 50.6604L15.421 46.164C16.0604 45.6119 16.1312 44.6477 15.579 44.0082L15.3751 43.772L15.7109 43.482C16.6023 42.7122 17.9439 42.4819 19.2992 42.8662L23.0834 43.9396C23.4804 44.0522 23.8935 43.8217 24.0062 43.4248C24.1188 43.0278 23.8882 42.6146 23.4912 42.5021L19.7069 41.4287C17.8665 40.9068 16.0076 41.2518 14.7344 42.351L14.3985 42.6409L11.522 39.3096L10.0394 37.5927C11.18 36.6664 12.376 35.8416 13.6033 35.1353C15.1524 34.2437 15.6726 34.1596 19.2693 33.7741C20.2856 33.6856 20.8462 33.9272 25.5965 35.2745C26.1835 35.441 26.3368 35.7548 26.4009 35.9764C26.4887 36.2791 26.4327 36.5683 26.4329 36.5683C26.3966 36.7277 26.3279 36.8695 26.2508 36.9735C26.1394 37.1237 25.971 37.2699 25.5709 37.2147C24.1569 37.0202 20.7904 36.57 20.7566 36.5654C20.3463 36.5111 19.9717 36.7979 19.917 37.207C19.8624 37.616 20.1495 37.992 20.5585 38.0466C20.5924 38.0511 23.9561 38.5009 25.3671 38.695C25.4938 38.7124 25.6154 38.7207 25.7321 38.7207C26.8324 38.7207 27.495 37.9874 27.7725 37.2909L28.8628 36.8414C28.8628 36.8414 35.2836 34.1967 35.3637 34.156C35.7904 33.9363 36.0546 33.9119 36.1635 33.8805C37.3651 33.7119 38.1877 35.2758 36.6771 36.2835C26.1794 42.2925 26.416 42.1645 26.416 42.1645C26.0538 42.3622 25.9205 42.8162 26.1184 43.1783C26.3162 43.5404 26.7704 43.674 27.1322 43.4759C27.1323 43.4759 37.4763 37.5463 37.4764 37.5463C40.1859 35.7817 38.8827 32.7391 36.8141 32.4081ZM14.4478 44.9848C14.4827 45.0246 9.33145 49.4477 9.29141 49.4823L2.44585 41.6813L7.6615 37.1777C7.66469 37.1751 7.67306 37.168 7.6862 37.1696C7.70045 37.1706 7.70692 37.1781 7.70961 37.1813L14.4478 44.9848ZM30.9053 34.3827L33.2033 31.7275C33.938 30.8787 35.3615 31.4182 35.3196 32.5565C35.3196 32.5566 30.906 34.3824 30.9053 34.3827Z" fill="#0D0D0D"/>
<path d="M31.1409 26.5289C30.746 26.4082 30.3286 26.63 30.2078 27.0247C29.5944 29.0276 27.7383 30.3731 25.6794 30.3731C23.0862 30.3731 20.9421 28.2683 20.9421 25.6357C20.9421 23.0237 23.0673 20.8985 25.6794 20.8985C27.6621 20.8984 29.4508 22.1499 30.1305 24.0126C30.2718 24.4003 30.7005 24.5999 31.0884 24.4586C31.4762 24.3171 31.6758 23.8882 31.5343 23.5006C30.6405 21.0504 28.2876 19.4042 25.6794 19.4042C22.2432 19.4042 19.4478 22.1997 19.4478 25.6357C19.4478 29.1051 22.2727 31.8674 25.6794 31.8674C28.3762 31.8674 30.8253 30.1118 31.6365 27.4622C31.7574 27.0676 31.5354 26.6498 31.1409 26.5289Z" fill="#EB9309"/>
</g>
<defs>
<clipPath id="clip0_1008_70">
<rect width="51" height="51" fill="white"/>
</clipPath>
</defs>
</svg>
