<svg width="25" height="22" viewBox="0 0 25 22" fill="none" xmlns="http://www.w3.org/2000/svg">
<path d="M18.3595 0C17.0029 0 15.7592 0.428513 14.6629 1.27366C13.6118 2.08392 12.9121 3.11592 12.5001 3.86635C12.0882 3.11587 11.3884 2.08392 10.3374 1.27366C9.24109 0.428513 7.99734 0 6.64075 0C2.85501 0 0.00012207 3.08667 0.00012207 7.17989C0.00012207 11.602 3.56179 14.6275 8.95369 19.2078C9.86931 19.9856 10.9072 20.8672 11.9859 21.8075C12.1281 21.9317 12.3107 22 12.5001 22C12.6896 22 12.8722 21.9317 13.0144 21.8076C14.0932 20.8671 15.131 19.9855 16.0471 19.2073C21.4385 14.6275 25.0001 11.602 25.0001 7.17989C25.0001 3.08667 22.1452 0 18.3595 0Z" fill="#7FB432"/>
</svg>
