<svg width="9" height="8" viewBox="0 0 9 8" fill="none" xmlns="http://www.w3.org/2000/svg">
<path d="M6.6095 0C6.12112 0 5.67337 0.155823 5.27871 0.46315C4.90034 0.757788 4.64843 1.13306 4.50012 1.40595C4.35182 1.13304 4.0999 0.757788 3.72153 0.46315C3.32687 0.155823 2.87912 0 2.39075 0C1.02788 0 0.00012207 1.12242 0.00012207 2.61087C0.00012207 4.2189 1.28232 5.3191 3.22341 6.98464C3.55303 7.26749 3.92665 7.58809 4.31499 7.93002C4.36618 7.97515 4.43192 8 4.50012 8C4.56833 8 4.63407 7.97515 4.68526 7.93004C5.07363 7.58805 5.44723 7.26747 5.77705 6.98446C7.71792 5.3191 9.00012 4.2189 9.00012 2.61087C9.00012 1.12242 7.97236 0 6.6095 0Z" fill="#EB9309"/>
</svg>
