<svg width="51" height="48" viewBox="0 0 51 48" fill="none" xmlns="http://www.w3.org/2000/svg">
<g clip-path="url(#clip0_909_1752)">
<path d="M25.2063 19.5223C19.1125 19.5223 14.1548 24.5196 14.1548 30.6622C14.1548 36.8048 19.1125 41.802 25.2063 41.802C31.3 41.802 36.2577 36.8047 36.2577 30.6622C36.2577 24.5197 31.3 19.5223 25.2063 19.5223ZM25.2063 40.3254C19.9202 40.3254 15.6196 35.9905 15.6196 30.6621C15.6196 25.3337 19.9201 20.9988 25.2063 20.9988C30.4924 20.9988 34.7929 25.3337 34.7929 30.6621C34.7929 35.9905 30.4923 40.3254 25.2063 40.3254V40.3254Z" fill="#EB9309"/>
<path d="M28.1295 27.7156V24.5294C28.1295 23.8509 27.5819 23.299 26.9088 23.299H23.5037C22.8306 23.299 22.283 23.8509 22.283 24.5294V27.7156H19.1221C18.4489 27.7156 17.9014 28.2676 17.9014 28.9461V32.3784C17.9014 33.057 18.4489 33.6089 19.1221 33.6089H22.283V36.7951C22.283 37.4736 22.8306 38.0256 23.5037 38.0256H26.9088C27.5819 38.0256 28.1295 37.4736 28.1295 36.7951V33.6089H31.2904C31.9636 33.6089 32.5111 33.057 32.5111 32.3784V28.9461C32.5111 28.2676 31.9636 27.7156 31.2904 27.7156H28.1295ZM31.0463 32.1323H27.3971C26.9926 32.1323 26.6646 32.4629 26.6646 32.8706V36.549H23.7479V32.8706C23.7479 32.4629 23.4199 32.1323 23.0154 32.1323H19.3662V29.1922H23.0154C23.4199 29.1922 23.7479 28.8617 23.7479 28.4539V24.7755H26.6646V28.4539C26.6646 28.8617 26.9926 29.1922 27.3971 29.1922H31.0463V32.1323Z" fill="#EB9309"/>
<path d="M49.4736 36.1183C49.8781 36.1183 50.2061 35.7877 50.2061 35.38V16.8469C50.2061 15.0285 48.7385 13.5492 46.9346 13.5492H43.324V12.7027C43.324 11.8668 42.6493 11.1867 41.82 11.1867H37.889C37.8757 11.1867 37.8629 11.1884 37.8497 11.1887L37.8498 5.50834C37.8498 3.91828 36.5766 2.62461 35.0116 2.62461H21.0523C20.6479 2.62461 20.3199 2.95516 20.3199 3.36289C20.3199 3.77062 20.6479 4.10117 21.0523 4.10117H35.0115C35.7687 4.10117 36.3849 4.73245 36.3849 5.50834L36.3848 13.5492H34.5674V7.9867C34.5674 6.87396 33.6754 5.96873 32.5789 5.96873H17.8331C16.7366 5.96873 15.8446 6.87396 15.8446 7.9867V13.5491H14.0271V12.7026C14.0271 12.7023 14.0271 12.7021 14.0271 12.7019L14.0272 5.50824C14.0272 4.73235 14.6434 4.10107 15.4006 4.10107H17.6344C18.0389 4.10107 18.3668 3.77052 18.3668 3.36279C18.3668 2.95506 18.0389 2.62451 17.6344 2.62451H15.4006C13.8355 2.62451 12.5624 3.91818 12.5624 5.50824L12.5623 11.1886C12.5491 11.1883 12.5363 11.1866 12.5231 11.1866H8.59209C7.76279 11.1866 7.08809 11.8667 7.08809 12.7026V13.5491H3.47754C1.67363 13.5491 0.206055 15.0284 0.206055 16.8468V44.4776C0.206055 46.2959 1.67363 47.7752 3.47754 47.7752H46.9346C48.7385 47.7752 50.2061 46.2959 50.2061 44.4776V38.8252C50.2061 38.4175 49.8781 38.0869 49.4736 38.0869C49.0691 38.0869 48.7412 38.4175 48.7412 38.8252V44.4776C48.7412 45.4817 47.9308 46.2987 46.9346 46.2987H40.5869V19.8492H41.82C42.3926 19.8492 42.8911 19.525 43.1451 19.0492C43.2613 18.8342 43.3275 18.5878 43.3275 18.3262V15.0258H46.9346C47.9308 15.0258 48.7412 15.8427 48.7412 16.8469V35.38C48.7412 35.7877 49.0691 36.1183 49.4736 36.1183V36.1183ZM37.889 12.6633H41.82C41.8416 12.6633 41.8592 12.681 41.8592 12.7027V18.3332C41.8592 18.3377 41.858 18.3418 41.8566 18.3459C41.8498 18.3575 41.8378 18.3656 41.8235 18.3656C40.4001 18.3656 39.3139 18.3656 37.8925 18.3656C37.8709 18.3656 37.8533 18.3478 37.8533 18.3261L37.889 12.6633ZM17.3095 7.9867C17.3095 7.68814 17.5443 7.44529 17.8331 7.44529H32.5789C32.8677 7.44529 33.1025 7.68814 33.1025 7.9867V13.5491C31.964 13.5491 17.756 13.5491 17.3095 13.5491V7.9867ZM8.55293 12.7027C8.55293 12.681 8.57051 12.6633 8.59209 12.6633H12.5231C12.5848 12.6633 12.5588 12.3457 12.5588 18.3332C12.5588 18.3549 12.5412 18.3726 12.5196 18.3726C11.0986 18.3726 10.0109 18.3726 8.59209 18.3726C8.57051 18.3726 8.55293 18.3549 8.55293 18.3332V12.7027ZM1.6709 44.4777V16.8469C1.6709 15.8427 2.48135 15.0258 3.47754 15.0258H7.08457V18.3332C7.08457 19.1691 7.75928 19.8492 8.58857 19.8492H8.59209H9.8252V46.2988H3.47754C2.48135 46.2988 1.6709 45.4818 1.6709 44.4777V44.4777ZM39.1221 46.2988H11.29V19.8492H12.5196H12.5231C13.3524 19.8492 14.0271 19.1691 14.0271 18.3332V15.0258H36.3849V18.3332C36.3849 19.1691 37.0596 19.8492 37.8889 19.8492H39.1221V46.2988Z" fill="#0D0D0D"/>
</g>
<defs>
<clipPath id="clip0_909_1752">
<rect width="50" height="48" fill="white" transform="translate(0.206055)"/>
</clipPath>
</defs>
</svg>
