<svg width="54" height="48" viewBox="0 0 54 48" fill="none" xmlns="http://www.w3.org/2000/svg">
<path d="M20.3077 29.2885V36.7308H10.1538V25.1538H20.3077V29.2885ZM25.3846 30.1154H23.6923V25.1538H33.8462V30.1154H32.1538V38.3846H37.2308V21.4039L22 8.8696L6.76923 21.4039V38.3846H25.3846V30.1154ZM38.3864 20.1923H40.6159V19.313L22.0005 4.15334L3.3851 19.313V20.1923H5.61459L22.001 6.70732L38.3864 20.1923ZM5.07692 31.7692V33.4231H1.69231V43.3462H42.3077V33.4231H38.9231V31.7692H44V45H0V31.7692H5.07692ZM1.69231 18.5385L22 2L42.3077 18.5385V21.8462H38.9231V40.0385H5.07692V21.8462H1.69231V18.5385ZM27.0769 38.3846H30.4615V30.1154H27.0769V38.3846ZM25.3846 28.4615H32.1538V26.8077H25.3846V28.4615ZM11.8462 28.4615H18.6154V26.8077H11.8462V28.4615ZM11.8462 35.0769H18.6154V30.1154H11.8462V35.0769Z" fill="#0D0D0D"/>
<rect x="11" y="26" width="9" height="10" stroke="#EB9309" stroke-width="2"/>
<rect x="10.5" y="28.5" width="10" height="1" stroke="#EB9309"/>
<rect x="25" y="26" width="9" height="3" stroke="#EB9309" stroke-width="2"/>
</svg>
