<svg width="19" height="16" viewBox="0 0 19 16" fill="none" xmlns="http://www.w3.org/2000/svg">
<path d="M13.9531 0C12.9221 0 11.9768 0.311646 11.1436 0.926301C10.3448 1.51558 9.81303 2.26612 9.49994 2.81189C9.18685 2.26609 8.65503 1.51558 7.85625 0.926301C7.02307 0.311646 6.07782 0 5.04681 0C2.16965 0 -6.10352e-05 2.24485 -6.10352e-05 5.22173C-6.10352e-05 8.43781 2.70681 10.6382 6.80465 13.9693C7.50052 14.535 8.28928 15.1762 9.1091 15.86C9.21717 15.9503 9.35595 16 9.49994 16C9.64392 16 9.78271 15.9503 9.89078 15.8601C10.7107 15.1761 11.4994 14.5349 12.1957 13.9689C16.2931 10.6382 18.9999 8.43781 18.9999 5.22173C18.9999 2.24485 16.8302 0 13.9531 0Z" fill="#0D0D0D"/>
</svg>
